<?xml version="1.0" encoding="UTF-8" standalone="no"?>
<svg
   viewBox="0 0 132 132"
   version="1.1"
   id="svg4"
   sodipodi:docname="logo.svg"
   inkscape:version="1.4.2 (f4327f4, 2025-05-13)"
   inkscape:export-filename="logo.png"
   inkscape:export-xdpi="561.73712"
   inkscape:export-ydpi="561.73712"
   xml:space="preserve"
   width="132"
   height="132"
   xmlns:inkscape="http://www.inkscape.org/namespaces/inkscape"
   xmlns:sodipodi="http://sodipodi.sourceforge.net/DTD/sodipodi-0.dtd"
   xmlns="http://www.w3.org/2000/svg"
   xmlns:svg="http://www.w3.org/2000/svg"><defs
     id="defs4" /><sodipodi:namedview
     id="namedview4"
     pagecolor="#ffffff"
     bordercolor="#000000"
     borderopacity="0.25"
     inkscape:showpageshadow="2"
     inkscape:pageopacity="0.0"
     inkscape:pagecheckerboard="0"
     inkscape:deskcolor="#d1d1d1"
     inkscape:zoom="5.495"
     inkscape:cx="66.787989"
     inkscape:cy="94.904459"
     inkscape:window-width="2560"
     inkscape:window-height="1334"
     inkscape:window-x="-11"
     inkscape:window-y="-11"
     inkscape:window-maximized="1"
     inkscape:current-layer="svg4" /><path
     d="M 66,0 12,24 v 36 c 0,34 23,64 54,72 31,-8 54,-38 54,-72 V 24 Z"
     fill="#3b60e4"
     id="shield"
     inkscape:label="Shield" /><g
     id="lock"
     inkscape:label="Lock"
     style="display:inline"
     transform="translate(12)"><path
       d="m 78,46 c 4,0 8,4 8,8 v 40 c 0,4 -4,8 -8,8 H 30 c -4,0 -8,-4 -8,-8 V 54 c 0,-4 4,-8 8,-8 h 4 v -8 c 0,-11 9,-20 20,-20 11,0 20,9 20,20 v 8 z"
       fill="#e4e4e4"
       id="lock-outline"
       style="display:inline" /><path
       d="m 42,46 v -8 c 0,-7 5,-12 12,-12 7,0 12,5 12,12 v 8 z"
       fill="#3b60e4"
       id="lock-clasp-inner" /></g><path
     d="m 68,62.8 2,26 -4,10 -4,-10 2,-26 c -6,0 -6,-4 -6,2 l -4,-4 v -4 a 14.2,14.2 0 0 0 10,2 q 1.2,-0.8 0,-2 -1.2,-1.2 0.4,-5.6 1.6,-4.4 3.2,0 1.6,4.4 0.4,5.6 -1.2,1.2 0,2 a 14.2,14.2 0 0 0 10,-2 v 4 l -4,4 c 0,-6 0,-2 -6,-2 z"
     fill="#3b60e4"
     id="sword"
     inkscape:label="Sword"
     style="display:inline;stroke-width:1.20005" /></svg>
