<svg xmlns="http://www.w3.org/2000/svg" viewBox="-18 -6 144 144">
  <!-- Shield with lock -->
  <path
    d="M54 0 0 24V60c0 34 23 64 54 72 31-8 54-38 54-72V24L54 0Z"
    fill="#3B60E4" />

  <!-- Lock -->
  <path
    d="M78 46c4 0 8 4 8 8V94c0 4-4 8-8 8H30c-4 0-8-4-8-8V54c0-4 4-8 8-8h4V38c0-11 9-20 20-20s20 9 20 20v8h4Z"
    fill="#E4E4E4" />

  <path
    d="M42 46V38c0-7 5-12 12-12s12 5 12 12v8H42Z"
    fill="#3B60E4" />

  <!-- Sword-->
  <path
    d="M56 63l2 26-4 10-4-10 2-26c-6 0-6-4-6 2l-4-4v-4a14.2 14.2 270 0010 2q1.2-.8 0-2t.4-5.6 3.2 0T56 57t0 2a14.2 14.2 270 0010-2v4l-4 4c0-6 0-2-6-2z"
    fill="#3B60E4" />
</svg>
