<svg xmlns="http://www.w3.org/2000/svg" viewBox="-18 -6 144 144">
  <!-- Shield with lock -->
  <path
    d="M 54 0 L 0 24 V 60 C 0 94 23 124 54 132 C 85 124 108 94 108 60 V 24 L 54 0 Z"
    fill="#3B60E4" />

  <!-- Lock -->
  <path
    d="M 78 46 C 82 46 86 50 86 54 V 94 C 86 98 82 102 78 102 H 30 C 26 102 22 98 22 94 V 54 C 22 50 26 46 30 46 H 34 V 38 C 34 27 43 18 54 18 S 74 27 74 38 V 46 H 78 Z"
    fill="#1B1B3A" />

  <path
    d="M 42 46 V 38 C 42 31 47 26 54 26 S 66 31 66 38 V 46 H 42 Z"
    fill="#3B60E4" />

  <!-- Sword-->
  <path
    d="M56 63l2 26-4 10-4-10 2-26c-6 0-6-4-6 2l-4-4v-4a14.2 14.2 270 0010 2q1.2-.8 0-2t.4-5.6 3.2 0T56 57t0 2a14.2 14.2 270 0010-2v4l-4 4c0-6 0-2-6-2z"
    fill="#7765E3" />
</svg>
