<svg xmlns="http://www.w3.org/2000/svg" viewBox="10.5 8 27 33">
  <!-- Shield with lock -->
  <path
    d="M 24 8 l -13.5 6 v 9 c 0 8.325 5.76 16.11 13.5 18 c 7.74 -1.89 13.5 -9.675 13.5 -18 v -9 l -13.5 -6 z m 6 11.5 c 1 0 2 1 2 2 v 10 c 0 1 -1 2 -2 2 h -12 c -1 0 -2 -1 -2 -2 l 0 -10 c 0 -1 1 -2 2 -2 h 1 v -2 c 0 -2.76 2.24 -5 5 -5 s 5 2.24 5 5 v 2 h 1 z m -9 0 v -2 c 0 -1.71 1.39 -3 3 -3 s 3 1.39 3 3 v 2 h -6 z"
    fill="#ffffff" />

  <!-- Sword-->
  <path
    d="M 41.6743 39.65 m -17.144 -15.84 l 0.5304 6.8943 l -1.0607 2.1213 l -1.0607 -2.1213 l 0.5303 -6.8943 c -1.0607 0 -1.591 -0.5303 -1.591 0.5303 c -0.5303 -0.5303 -1.591 -0.5303 -1.0607 -1.0607 a 1.065 1.065 225 0 1 0 -1.0607 a 3.75 3.75 225 0 0 2.6517 0.5303 q 0.3182 -0.2121 0 -0.5303 t 0.1061 -1.4849 t 0.8485 0 t 0.1061 1.4849 t 0 0.5303 a 3.75 3.75 225 0 0 2.6517 -0.5303 a 1.065 1.065 225 0 1 0 1.0607 c 0.5303 0.5303 -0.5303 0.5303 -1.0607 1.0607 c 0 -1.0607 -0.5303 -0.5303 -1.591 -0.5303 m 0.5303 6.8943 l -1.0607 -1.0607 l -1.0607 1.0607 l 1.0607 -0.8485 l 1.0607 0.8485"
    fill="#ffffff" />
</svg>
