<svg xmlns="http://www.w3.org/2000/svg" viewBox="42 32 108 132">
  <!-- Shield with lock -->
  <path
    d="M96 32l-54 24v36c0 34 23 64 54 72 31-8 54-38 54-72V56L96 32zm24 46c4 0 8 4 8 8v40c0 4-4 8-8 8H72c-4 0-8-4-8-8V86c0-4 4-8 8-8h4v-8c0-11 9-20 20-20s20 9 20 20v8h4zm-36 0v-8c0-7 5-12 12-12s12 5 12 12v8H84z"
    fill="#ffffff" />

  <!-- Sword-->
  <path
    d="M98 95l2 26-4 10-4-10 2-26c-6 0-6-4-6 2l-4-4v-4a14.2 14.2 270 0010 2q1.2-.8 0-2t.4-5.6 3.2 0T98 89t0 2a14.2 14.2 270 0010-2v4l-4 4c0-6 0-2-6-2z"
    fill="#ffffff" />
</svg>
